<mxfile host="app.diagrams.net" agent="Mozilla/5.0 (Windows NT 10.0; Win64; x64) AppleWebKit/537.36 (KHTML, like Gecko) Chrome/138.0.0.0 Safari/537.36 Edg/138.0.0.0" version="28.0.7">
  <diagram name="Page-1" id="Zqq4zWRU9nIy34UZfeE2">
    <mxGraphModel dx="938" dy="576" grid="1" gridSize="10" guides="1" tooltips="1" connect="1" arrows="1" fold="1" page="1" pageScale="1" pageWidth="850" pageHeight="1100" math="0" shadow="0">
      <root>
        <mxCell id="0" />
        <mxCell id="1" parent="0" />
        <mxCell id="vWXEo-mW8N7rsdaXYw43-2" value="Analysis Agent" style="whiteSpace=wrap;strokeWidth=2;rounded=1;fillColor=#FCF6FF;strokeColor=#9673a6;" parent="1" vertex="1">
          <mxGeometry x="95" y="124" width="162" height="54" as="geometry" />
        </mxCell>
        <mxCell id="o6C5OdexamTOAV6xBDar-8" style="edgeStyle=orthogonalEdgeStyle;rounded=0;orthogonalLoop=1;jettySize=auto;html=1;curved=1;" edge="1" parent="1" source="vWXEo-mW8N7rsdaXYw43-3" target="o6C5OdexamTOAV6xBDar-1">
          <mxGeometry relative="1" as="geometry" />
        </mxCell>
        <mxCell id="vWXEo-mW8N7rsdaXYw43-3" value="get_stats" style="whiteSpace=wrap;strokeWidth=2;rounded=1;fillColor=light-dark(#fcf6ff, #392f3f);strokeColor=#9673a6;" parent="1" vertex="1">
          <mxGeometry x="20" y="228" width="126" height="54" as="geometry" />
        </mxCell>
        <mxCell id="o6C5OdexamTOAV6xBDar-9" style="edgeStyle=orthogonalEdgeStyle;rounded=0;orthogonalLoop=1;jettySize=auto;html=1;entryX=0.5;entryY=0;entryDx=0;entryDy=0;curved=1;" edge="1" parent="1" source="vWXEo-mW8N7rsdaXYw43-4" target="o6C5OdexamTOAV6xBDar-1">
          <mxGeometry relative="1" as="geometry" />
        </mxCell>
        <mxCell id="vWXEo-mW8N7rsdaXYw43-4" value="python_repl" style="whiteSpace=wrap;strokeWidth=2;rounded=1;fillColor=light-dark(#fcf6ff, #392f3f);strokeColor=#9673a6;" parent="1" vertex="1">
          <mxGeometry x="196" y="228" width="146" height="54" as="geometry" />
        </mxCell>
        <mxCell id="vWXEo-mW8N7rsdaXYw43-6" value="" style="curved=1;startArrow=none;endArrow=block;exitX=0.2;exitY=1;entryX=0.5;entryY=0;rounded=0;" parent="1" source="vWXEo-mW8N7rsdaXYw43-2" target="vWXEo-mW8N7rsdaXYw43-3" edge="1">
          <mxGeometry relative="1" as="geometry">
            <Array as="points">
              <mxPoint x="83" y="203" />
            </Array>
          </mxGeometry>
        </mxCell>
        <mxCell id="vWXEo-mW8N7rsdaXYw43-7" value="" style="curved=1;startArrow=none;endArrow=block;exitX=0.8;exitY=1;entryX=0.5;entryY=0;rounded=0;" parent="1" source="vWXEo-mW8N7rsdaXYw43-2" target="vWXEo-mW8N7rsdaXYw43-4" edge="1">
          <mxGeometry relative="1" as="geometry">
            <Array as="points">
              <mxPoint x="269" y="203" />
            </Array>
          </mxGeometry>
        </mxCell>
        <mxCell id="vWXEo-mW8N7rsdaXYw43-13" style="edgeStyle=orthogonalEdgeStyle;rounded=0;orthogonalLoop=1;jettySize=auto;html=1;entryX=0.5;entryY=0;entryDx=0;entryDy=0;" parent="1" source="vWXEo-mW8N7rsdaXYw43-8" edge="1">
          <mxGeometry relative="1" as="geometry">
            <mxPoint x="586" y="228" as="targetPoint" />
          </mxGeometry>
        </mxCell>
        <mxCell id="vWXEo-mW8N7rsdaXYw43-8" value="Quality Agent" style="whiteSpace=wrap;strokeWidth=2;rounded=1;fillColor=#FCF6FF;strokeColor=#9673a6;" parent="1" vertex="1">
          <mxGeometry x="505" y="124" width="162" height="54" as="geometry" />
        </mxCell>
        <mxCell id="o6C5OdexamTOAV6xBDar-1" value="end" style="whiteSpace=wrap;strokeWidth=2;rounded=1;fillColor=#FCF6FF;strokeColor=#9673a6;" vertex="1" parent="1">
          <mxGeometry x="95" y="320" width="162" height="54" as="geometry" />
        </mxCell>
        <mxCell id="o6C5OdexamTOAV6xBDar-2" value="end" style="whiteSpace=wrap;strokeWidth=2;rounded=1;fillColor=#FCF6FF;strokeColor=#9673a6;" vertex="1" parent="1">
          <mxGeometry x="505" y="320" width="162" height="54" as="geometry" />
        </mxCell>
        <mxCell id="o6C5OdexamTOAV6xBDar-4" style="edgeStyle=orthogonalEdgeStyle;rounded=0;orthogonalLoop=1;jettySize=auto;html=1;entryX=0.5;entryY=0;entryDx=0;entryDy=0;" edge="1" parent="1" source="o6C5OdexamTOAV6xBDar-3" target="o6C5OdexamTOAV6xBDar-2">
          <mxGeometry relative="1" as="geometry" />
        </mxCell>
        <mxCell id="o6C5OdexamTOAV6xBDar-3" value="access_quality" style="whiteSpace=wrap;strokeWidth=2;rounded=1;fillColor=#FCF6FF;strokeColor=#9673a6;" vertex="1" parent="1">
          <mxGeometry x="505" y="228" width="162" height="54" as="geometry" />
        </mxCell>
      </root>
    </mxGraphModel>
  </diagram>
</mxfile>
